<svg viewBox="0 0 64.68 19.66" width="67" height="25" xmlns="http://www.w3.org/2000/svg"><g fill="#6559c3" transform="translate(-.82 -2.29)"><path d="m5.14 17.64a4 4 0 0 1 -2.27-.64 4.22 4.22 0 0 1 -1.52-1.86 7.32 7.32 0 0 1 -.53-2.92 7 7 0 0 1 .56-3 4.29 4.29 0 0 1 1.55-1.85 4.13 4.13 0 0 1 2.3-.65 3.11 3.11 0 0 1 2.3.87 4.13 4.13 0 0 1 1.12 2.22l-.33.44v-7.77h3.57v15h-3.2l-.23-3.57.42.32a4.12 4.12 0 0 1 -.64 1.77 3.59 3.59 0 0 1 -1.3 1.21 3.63 3.63 0 0 1 -1.8.43zm1.24-2.64a1.64 1.64 0 0 0 1-.33 2 2 0 0 0 .66-1 4.59 4.59 0 0 0 .24-1.59 4.66 4.66 0 0 0 -.22-1.5 2 2 0 0 0 -.66-.95 1.62 1.62 0 0 0 -1-.32 1.73 1.73 0 0 0 -1.4.69 3.45 3.45 0 0 0 -.54 2.15 3.52 3.52 0 0 0 .52 2.15 1.74 1.74 0 0 0 1.4.7z"/><path d="m16.23 5.71a2.41 2.41 0 0 1 -1.58-.41 1.57 1.57 0 0 1 -.5-1.3 1.6 1.6 0 0 1 .5-1.31 2.47 2.47 0 0 1 1.58-.41 2.51 2.51 0 0 1 1.58.41 1.6 1.6 0 0 1 .5 1.31 1.57 1.57 0 0 1 -.5 1.29 2.45 2.45 0 0 1 -1.58.42zm1.77 1.22v10.5h-3.55v-10.5z"/><path d="m27.11 15.1a4.38 4.38 0 0 1 2.8.77 2.62 2.62 0 0 1 1 2.19 3.29 3.29 0 0 1 -.71 2.16 4.23 4.23 0 0 1 -2 1.29 9.58 9.58 0 0 1 -3.05.44 8.74 8.74 0 0 1 -4.15-.72 2.16 2.16 0 0 1 -1.26-1.93 1.72 1.72 0 0 1 .71-1.43 4.23 4.23 0 0 1 2.38-.59l-.09.34a3.33 3.33 0 0 1 -1.91-.76 2.06 2.06 0 0 1 -.63-1.59 2 2 0 0 1 .8-1.64 3.6 3.6 0 0 1 2.12-.69l1.3.61h-.33a2.23 2.23 0 0 0 -1.16.27.67.67 0 0 0 -.33.57.58.58 0 0 0 .29.53 1.7 1.7 0 0 0 .88.18zm-1.85-8.38a7.83 7.83 0 0 1 2.74.42 3.63 3.63 0 0 1 1.73 1.21 3.09 3.09 0 0 1 .6 1.94 3.1 3.1 0 0 1 -.6 1.93 3.56 3.56 0 0 1 -1.73 1.21 8.09 8.09 0 0 1 -2.73.41 6.54 6.54 0 0 1 -3.79-.92 3.06 3.06 0 0 1 -1.29-2.63 3.09 3.09 0 0 1 .6-1.94 3.68 3.68 0 0 1 1.73-1.21 8 8 0 0 1 2.74-.42zm-.12 12.92a8.53 8.53 0 0 0 1.67-.14 2.59 2.59 0 0 0 1-.38.68.68 0 0 0 .34-.56.59.59 0 0 0 -.23-.49 1.45 1.45 0 0 0 -.84-.18h-3.77a.93.93 0 0 0 -.64.21.68.68 0 0 0 -.24.53c0 .32.24.57.71.74a5.87 5.87 0 0 0 2 .27zm.12-10.88a1.57 1.57 0 0 0 -1.12.4 1.44 1.44 0 0 0 -.43 1.13 1.41 1.41 0 0 0 .43 1.11 1.57 1.57 0 0 0 1.12.4 1.6 1.6 0 0 0 1.12-.4 1.42 1.42 0 0 0 .44-1.11 1.45 1.45 0 0 0 -.44-1.13 1.6 1.6 0 0 0 -1.12-.4zm5.46-4.64.28 2.39a.8.8 0 0 0 -.26 0h-.25a1.87 1.87 0 0 0 -1.37.45 1.52 1.52 0 0 0 -.43 1.04l-1.26-.46a4.49 4.49 0 0 1 .31-1.66 3 3 0 0 1 1-1.3 2.63 2.63 0 0 1 1.67-.5h.15a.5.5 0 0 1 .16.04z"/><path d="m34.1 5.71a2.43 2.43 0 0 1 -1.58-.41 1.57 1.57 0 0 1 -.52-1.3 1.6 1.6 0 0 1 .49-1.31 2.49 2.49 0 0 1 1.58-.41 2.51 2.51 0 0 1 1.58.41 1.6 1.6 0 0 1 .53 1.31 1.57 1.57 0 0 1 -.5 1.29 2.45 2.45 0 0 1 -1.58.42zm1.79 1.22v10.5h-3.57v-10.5z"/><path d="m46 6.93v2.54h-8.56v-2.54zm-3.18-3.34v10.1a1.34 1.34 0 0 0 .37 1.08 1.45 1.45 0 0 0 1 .33 2.88 2.88 0 0 0 .88-.12 2.07 2.07 0 0 0 .66-.34l.38 2.2a4.08 4.08 0 0 1 -1.33.59 6.41 6.41 0 0 1 -1.64.21 5.59 5.59 0 0 1 -2.06-.34 2.68 2.68 0 0 1 -1.35-1.07 3.69 3.69 0 0 1 -.49-2v-9.65z"/><path d="m53.63 10.77a1.58 1.58 0 0 0 -.41-1.16 1.43 1.43 0 0 0 -1.1-.43 2 2 0 0 0 -1.19.34 2 2 0 0 0 -.68 1.23l-3-.71a3.75 3.75 0 0 1 1.55-2.42 6 6 0 0 1 3.55-.9 6.87 6.87 0 0 1 2.65.45 3.47 3.47 0 0 1 1.6 1.35 3.89 3.89 0 0 1 .58 2.19v3.84c0 .55.25.82.74.82a2 2 0 0 0 .61-.08l-.21 2a3.74 3.74 0 0 1 -1.54.29 3.87 3.87 0 0 1 -1.45-.26 2.1 2.1 0 0 1 -1-.8 2.39 2.39 0 0 1 -.33-1.32v-.12l.4-.15a2.18 2.18 0 0 1 -.54 1.51 3.18 3.18 0 0 1 -1.38.91 5.58 5.58 0 0 1 -1.78.29 4.73 4.73 0 0 1 -1.87-.34 2.65 2.65 0 0 1 -1.22-1 2.78 2.78 0 0 1 -.43-1.59 2.67 2.67 0 0 1 .68-1.88 3.91 3.91 0 0 1 2.15-1l3.99-.83v1.89l-2 .42a2.27 2.27 0 0 0 -.93.37.85.85 0 0 0 -.31.73.77.77 0 0 0 .34.69 1.4 1.4 0 0 0 .8.23 2.2 2.2 0 0 0 .68-.1 1.59 1.59 0 0 0 .58-.33 1.67 1.67 0 0 0 .4-.56 2.1 2.1 0 0 0 .14-.79z"/><path d="m63.46 2.48v11.38a1.68 1.68 0 0 0 .23 1 1 1 0 0 0 .78.29 2.55 2.55 0 0 0 .52 0l.51-.15-.23 2.15a3.31 3.31 0 0 1 -1 .37 5 5 0 0 1 -1.2.15 3.25 3.25 0 0 1 -2.43-.78 3.51 3.51 0 0 1 -.76-2.54v-11.87z"/></g></svg>