<svg xmlns="http://www.w3.org/2000/svg" width="99" height="54" fill="none" viewBox="0 0 99 54"><path fill="#fff" d="M36.7803 0.746545C37.5534 0.857144 38.0781 1.09217 38.3542 1.45161C38.6579 1.81106 38.8098 2.28111 38.8098 2.86175C38.8098 4.76959 37.7881 5.65438 35.7448 5.51613L34.2951 5.39171C32.666 5.25346 31.0368 5.14286 29.4076 5.05991C27.8061 4.97696 26.1217 4.93548 24.3545 4.93548H22.4906C22.1593 9.02765 21.8141 12.7604 21.4552 16.1336L28.5793 16.0092C29.6009 16.0092 30.2774 16.1889 30.6088 16.5484C30.9678 16.9078 31.1472 17.3917 31.1472 18C31.1472 18.9401 30.8711 19.6866 30.3189 20.2396C29.7666 20.765 28.9796 21.0277 27.958 21.0277H20.8753L20.6268 22.8111C20.0469 27.3733 18.8043 30.6221 16.899 32.5576C15.0214 34.4931 12.4258 35.4608 9.11223 35.4608C7.23456 35.4608 5.50876 35.0599 3.93483 34.2581C2.3609 33.4286 1.20116 32.4332 0.455611 31.2719C0.15187 30.8018 0 30.235 0 29.5714C0 28.9078 0.15187 28.3272 0.455611 27.8295C0.786965 27.3318 1.18735 27.0829 1.65677 27.0829C1.98812 27.0829 2.30567 27.1936 2.60941 27.4147C2.94076 27.6359 3.35496 28.0645 3.85199 28.7005C5.1774 30.4424 6.82036 31.3134 8.78087 31.3134C10.3548 31.3134 11.6664 30.6774 12.7157 29.4055C13.7926 28.106 14.4829 26.0737 14.7867 23.3088L15.0352 21.0277H13.0471C12.412 21.0277 11.8597 20.8479 11.3903 20.4885C10.9485 20.129 10.7276 19.6175 10.7276 18.9539C10.7276 18.0968 10.9485 17.447 11.3903 17.0046C11.8321 16.5346 12.481 16.2995 13.337 16.2995C14.1101 16.2995 14.8695 16.2857 15.615 16.2581C15.9464 13.2166 16.3054 9.52535 16.6919 5.18433C13.7098 5.46083 11.6112 5.9447 10.3962 6.63595C9.18126 7.32719 8.57378 8.35023 8.57378 9.70507C8.57378 10.6452 8.84991 11.5438 9.40216 12.4009C9.56784 12.6498 9.65068 12.8986 9.65068 13.1475C9.65068 13.6452 9.37455 14.0876 8.82229 14.4747C8.27004 14.8341 7.64875 15.0138 6.95843 15.0138C6.21288 15.0138 5.57779 14.7926 5.05314 14.3502C4.72179 14.0737 4.40424 13.5069 4.1005 12.6498C3.79676 11.7926 3.64489 10.8387 3.64489 9.78802C3.64489 6.35945 5.3983 3.87097 8.90513 2.32258C12.4396 0.774196 17.5894 0 24.3545 0C29.0487 0 33.1906 0.248849 36.7803 0.746545Z"/><path fill="#fff" d="M36.9424 13.0645C35.7826 13.0645 34.9128 12.8018 34.333 12.2765C33.7531 11.7235 33.4632 10.9631 33.4632 9.99539C33.4632 9.02765 33.8359 8.22581 34.5815 7.58986C35.3546 6.92627 36.3073 6.59447 37.4394 6.59447C38.4611 6.59447 39.2895 6.84332 39.9246 7.34102C40.5597 7.83871 40.8772 8.54378 40.8772 9.45622C40.8772 10.5622 40.5182 11.447 39.8003 12.1106C39.0824 12.7465 38.1297 13.0645 36.9424 13.0645ZM36.611 35.3364C34.8162 35.3364 33.5046 34.7005 32.6762 33.4286C31.8754 32.1567 31.475 30.47 31.475 28.3687C31.475 27.1244 31.6269 25.5346 31.9307 23.5991C32.262 21.6359 32.6762 19.8111 33.1732 18.1244C33.4217 17.2396 33.7531 16.6313 34.1673 16.2995C34.5815 15.9677 35.2442 15.8018 36.1554 15.8018C37.5637 15.8018 38.2678 16.2719 38.2678 17.212C38.2678 17.9032 38.0055 19.5069 37.4808 22.023C36.8181 25.0645 36.4868 27.1244 36.4868 28.2028C36.4868 29.0323 36.5972 29.6682 36.8181 30.1106C37.039 30.553 37.4118 30.7742 37.9364 30.7742C38.4335 30.7742 39.0548 30.4286 39.8003 29.7373C40.5458 29.0461 41.5399 27.9539 42.7825 26.4608C43.1138 26.0737 43.4866 25.8802 43.9008 25.8802C44.2598 25.8802 44.5359 26.0461 44.7292 26.3779C44.9501 26.7097 45.0605 27.1659 45.0605 27.7465C45.0605 28.8525 44.7982 29.7097 44.2736 30.318C41.5399 33.6636 38.9857 35.3364 36.611 35.3364Z"/><path fill="#fff" d="M44.6502 35.3364C43.6009 35.3364 42.8554 34.7834 42.4136 33.6774C41.9994 32.5714 41.7923 30.8018 41.7923 28.3687C41.7923 24.7742 42.3031 21.3594 43.3248 18.1244C43.5733 17.3226 43.9737 16.7419 44.526 16.3825C45.1058 15.9954 45.9066 15.8018 46.9283 15.8018C47.4805 15.8018 47.8671 15.871 48.088 16.0092C48.3089 16.1475 48.4194 16.4101 48.4194 16.7972C48.4194 17.2396 48.2123 18.235 47.7981 19.7834C47.522 20.8894 47.3011 21.8571 47.1354 22.6866C46.9697 23.5161 46.8316 24.5392 46.7212 25.7558C47.6324 23.3779 48.6541 21.4424 49.7862 19.9493C50.9183 18.4562 52.0229 17.3917 53.0998 16.7558C54.2043 16.1198 55.2121 15.8018 56.1234 15.8018C57.9182 15.8018 58.8156 16.7005 58.8156 18.4977C58.8156 19.576 58.5119 21.5253 57.9044 24.3456C57.3797 26.7512 57.1174 28.341 57.1174 29.1152C57.1174 30.2212 57.5178 30.7742 58.3186 30.7742C58.8708 30.7742 59.5197 30.4424 60.2653 29.7788C61.0384 29.0876 62.0601 27.9816 63.3303 26.4608C63.6617 26.0737 64.0344 25.8802 64.4486 25.8802C64.8076 25.8802 65.0837 26.0461 65.277 26.3779C65.4979 26.7097 65.6084 27.1659 65.6084 27.7465C65.6084 28.8525 65.346 29.7097 64.8214 30.318C63.634 31.7834 62.35 32.9862 60.9694 33.9263C59.6164 34.8664 58.0701 35.3364 56.3305 35.3364C54.9222 35.3364 53.8591 34.9355 53.1412 34.1336C52.4232 33.3042 52.0643 32.1152 52.0643 30.5668C52.0643 29.7926 52.2576 28.4101 52.6441 26.4194C53.0031 24.6774 53.1826 23.4747 53.1826 22.8111C53.1826 22.3687 53.0307 22.1475 52.727 22.1475C52.368 22.1475 51.8572 22.6175 51.1945 23.5576C50.5594 24.47 49.8967 25.6866 49.2063 27.2074C48.5436 28.7281 48.0052 30.3318 47.591 32.0184C47.2873 33.318 46.9283 34.2028 46.5141 34.6728C46.1275 35.1152 45.5062 35.3364 44.6502 35.3364Z"/><path fill="#fff" d="M65.198 35.3364C64.1488 35.3364 63.4032 34.7834 62.9614 33.6774C62.5472 32.5714 62.3401 30.8018 62.3401 28.3687C62.3401 24.7742 62.851 21.3594 63.8726 18.1244C64.1211 17.3226 64.5215 16.7419 65.0738 16.3825C65.6537 15.9954 66.4544 15.8018 67.4761 15.8018C68.0284 15.8018 68.4149 15.871 68.6358 16.0092C68.8567 16.1475 68.9672 16.4101 68.9672 16.7972C68.9672 17.2396 68.7601 18.235 68.3459 19.7834C68.0698 20.8894 67.8489 21.8571 67.6832 22.6866C67.5175 23.5161 67.3795 24.5392 67.269 25.7558C68.1802 23.3779 69.2019 21.4424 70.334 19.9493C71.4662 18.4562 72.5707 17.3917 73.6476 16.7558C74.7521 16.1198 75.7599 15.8018 76.6712 15.8018C78.466 15.8018 79.3634 16.7005 79.3634 18.4977C79.3634 19.576 79.0597 21.5253 78.4522 24.3456C77.9275 26.7512 77.6652 28.341 77.6652 29.1152C77.6652 30.2212 78.0656 30.7742 78.8664 30.7742C79.4186 30.7742 80.0675 30.4424 80.8131 29.7788C81.5863 29.0876 82.6079 27.9816 83.8781 26.4608C84.2095 26.0737 84.5822 25.8802 84.9964 25.8802C85.3554 25.8802 85.6315 26.0461 85.8248 26.3779C86.0457 26.7097 86.1562 27.1659 86.1562 27.7465C86.1562 28.8525 85.8938 29.7097 85.3692 30.318C84.1818 31.7834 82.8979 32.9862 81.5172 33.9263C80.1642 34.8664 78.6179 35.3364 76.8783 35.3364C75.47 35.3364 74.4069 34.9355 73.689 34.1336C72.971 33.3042 72.6121 32.1152 72.6121 30.5668C72.6121 29.7926 72.8054 28.4101 73.192 26.4194C73.5509 24.6774 73.7304 23.4747 73.7304 22.8111C73.7304 22.3687 73.5785 22.1475 73.2748 22.1475C72.9158 22.1475 72.405 22.6175 71.7423 23.5576C71.1072 24.47 70.4445 25.6866 69.7542 27.2074C69.0915 28.7281 68.553 30.3318 68.1388 32.0184C67.8351 33.318 67.4761 34.2028 67.0619 34.6728C66.6753 35.1152 66.054 35.3364 65.198 35.3364Z"/><path fill="#fff" d="M97.3018 15.8018C97.9369 15.8018 98.3787 15.8848 98.6272 16.0507C98.8757 16.2166 99 16.4931 99 16.8802C99 17.5438 98.641 19.9078 97.9231 23.9723C97.288 27.871 96.9152 30.1797 96.8048 30.8986C95.7831 38.0046 94.3749 43.6313 92.58 47.7788C90.7852 51.9263 88.3967 54 85.4145 54C84.0062 54 82.8603 53.5576 81.9767 52.6728C81.0931 51.8157 80.6513 50.682 80.6513 49.2719C80.6513 47.9724 80.9412 46.6452 81.5211 45.2903C82.1286 43.9355 83.2331 42.3733 84.8346 40.6037C86.4638 38.8618 88.7557 36.8571 91.7102 34.5899L91.8345 33.6359C92.0278 32.6129 92.2487 31.1475 92.4972 29.2396C91.9449 31.2304 91.1718 32.7512 90.1777 33.8018C89.1837 34.8249 88.1344 35.3364 87.0299 35.3364C85.7873 35.3364 84.7656 34.7696 83.9648 33.6359C83.1917 32.4747 82.8051 31.0369 82.8051 29.3226C82.8051 27.2489 82.9432 25.3548 83.2193 23.6406C83.4954 21.8986 83.951 20.0599 84.5861 18.1244C84.8622 17.2949 85.2488 16.7005 85.7459 16.341C86.2429 15.9816 87.0299 15.8018 88.1068 15.8018C88.7142 15.8018 89.1284 15.8986 89.3493 16.0922C89.5978 16.2857 89.7221 16.576 89.7221 16.9631C89.7221 17.1843 89.5702 17.9309 89.2665 19.2028C88.9904 20.2258 88.7695 21.1521 88.6038 21.9816C88.3829 23.1152 88.1896 24.2074 88.0239 25.2581C87.8582 26.2811 87.7754 27.1244 87.7754 27.788C87.7754 28.8387 88.0653 29.3641 88.6452 29.3641C89.0594 29.3641 89.5702 28.9493 90.1777 28.1198C90.8128 27.2903 91.4755 26.0323 92.1658 24.3456C92.8838 22.659 93.5741 20.5853 94.2368 18.1244C94.4577 17.2949 94.789 16.7005 95.2309 16.341C95.7003 15.9816 96.3906 15.8018 97.3018 15.8018ZM85.8701 49.977C86.5604 49.977 87.3336 49.1751 88.1896 47.5714C89.0456 45.9677 89.9016 43.2995 90.7576 39.5668C88.6314 41.3641 87.0851 42.9954 86.1186 44.4608C85.1798 45.9539 84.7104 47.2535 84.7104 48.3595C84.7104 48.8295 84.7932 49.2166 84.9589 49.5207C85.1522 49.8249 85.4559 49.977 85.8701 49.977Z"/></svg>