<svg id="Layer_1" data-name="Layer 1" xmlns="http://www.w3.org/2000/svg" viewBox="0 0 322.71 63.15"><defs><style>.cls-1{fill:none;}.cls-2{fill:#f58a1f;}.cls-3{fill:#f05a22;}.cls-4{fill:#ed3024;}</style></defs><path class="cls-1" d="M124.59,52.9h-5.41v7.27h5.36c3,0,4.78-1.33,4.78-3.61v-.11C129.32,54.06,127.46,52.9,124.59,52.9Z" transform="translate(-18.18 -41.7)"/><path class="cls-1" d="M137.56,71.68V65a15.53,15.53,0,0,1-3.2,2.06Z" transform="translate(-18.18 -41.7)"/><polygon class="cls-1" points="61.71 24.15 68.51 24.15 65.11 15.13 61.71 24.15"/><path class="cls-2" d="M134.36,67a15.53,15.53,0,0,0,3.2-2.06V53H126.62V42.55c-.56,0-1.11-.06-1.71-.06H106.76V79.65h12.42V69h2.65l7,10.62h8.72v-8Zm-5-10.46c0,2.28-1.81,3.61-4.78,3.61h-5.36V52.9h5.41c2.87,0,4.73,1.16,4.73,3.55ZM47.06,42.49H60V79.65H47.64V61.23L39.09,74.45h-.21L30.34,61.23V79.65H18.18V42.49h13l8,13.06Zm30.18-.26L61.58,79.65H74.85l1.91-5h13l2,5h13.48L89.55,42.23Zm2.65,23.62,3.4-9,3.4,9Z" transform="translate(-18.18 -41.7)"/><path class="cls-3" d="M126.62,42.49h34.29V53H150V79.65h-7l-5.45-8V65a11.75,11.75,0,0,0,4.13-9.3v-.11a11.67,11.67,0,0,0-3.4-8.81c-2.37-2.37-6.07-3.93-11.67-4.19Zm48.61,22.94h18.15v-9H175.23V52.68h19.48V42.49H163V79.65H195V69.46H175.23Zm82.21-22.94V55.6H246.08V42.49H233.66V79.65h12.42V66.33h11.36V79.65h12.42V42.49ZM214.92,69.3c-4.09,0-6.95-3.4-6.95-8.23V61c0-4.46,2.76-8.13,6.95-8.13,3.4,0,5.36,1.86,6.74,4.52l10.25-6c-3.14-5.68-8.66-9.66-16.83-9.66-11.1,0-19.75,8.28-19.75,19.37v.11A18.93,18.93,0,0,0,214.6,80.45c9.24,0,14.44-4.51,17.57-10l-10.24-5.79C220.39,67.39,218.42,69.3,214.92,69.3Z" transform="translate(-18.18 -41.7)"/><path class="cls-4" d="M137.56,53V65a11.75,11.75,0,0,0,4.13-9.3v-.11a11.67,11.67,0,0,0-3.4-8.81c-2.37-2.37-6.07-3.93-11.67-4.19V53Z" transform="translate(-18.18 -41.7)"/><polygon class="cls-4" points="119.38 37.96 124.83 37.96 119.38 29.99 119.38 37.96"/><path class="cls-3" d="M275.88,44.28a2,2,0,1,1-2-2A2,2,0,0,1,275.88,44.28Zm-3.52,0a1.52,1.52,0,0,0,1.53,1.56,1.5,1.5,0,0,0,1.49-1.55,1.51,1.51,0,1,0-3,0Zm1.21,1h-.46V43.34a4.52,4.52,0,0,1,.75-.06,1.09,1.09,0,0,1,.67.15.49.49,0,0,1-.2.88v0c.19.06.29.21.35.47a1.36,1.36,0,0,0,.14.48h-.48a1.58,1.58,0,0,1-.15-.48c0-.2-.16-.29-.41-.29h-.21Zm0-1.1h.21c.25,0,.46-.08.46-.28s-.13-.3-.42-.3l-.25,0Z" transform="translate(-18.18 -41.7)"/><path d="M141.6,87.88h2.46l2.4,6.52,5.91-6.52h2.77l-3.7,13.78H149l2.66-9.88-6.06,6.49h-.08L143,91.82l-2.63,9.84H137.9Z" transform="translate(-18.18 -41.7)"/><path d="M154.57,99c0-2.4,1.94-3.74,4.62-3.74a9.79,9.79,0,0,1,3.11.51l.06-.21a3,3,0,0,0,.12-.83c0-.92-.67-1.53-2.27-1.53a7.58,7.58,0,0,0-2.85.57l-.39-2a9.82,9.82,0,0,1,3.72-.71c2.73,0,4.17,1.2,4.17,3.23a5.46,5.46,0,0,1-.22,1.47l-1.55,5.85h-2.35l.36-1.36a4.41,4.41,0,0,1-3.37,1.57A2.89,2.89,0,0,1,154.57,99Zm7.24-1.34.12-.45a7.92,7.92,0,0,0-2.37-.39c-1.59,0-2.55.78-2.55,1.87,0,.9.63,1.41,1.65,1.41A3.42,3.42,0,0,0,161.81,97.68Z" transform="translate(-18.18 -41.7)"/><path d="M168.27,91.27h2.38L170,93.61c1.15-1.65,2.5-2.66,4.35-2.54l-.67,2.52h-.13c-2.09,0-3.9,1.34-4.67,4.21l-1,3.86H165.5Z" transform="translate(-18.18 -41.7)"/><path d="M177.93,90.13h-4.39l.61-2.25h11.18l-.61,2.25h-4.37l-3.11,11.53h-2.42Z" transform="translate(-18.18 -41.7)"/><path d="M187.42,100a4.18,4.18,0,0,0,2.66-1l1.14,1.52a6.09,6.09,0,0,1-4,1.43c-2.89,0-4.72-1.75-4.72-4.54a6.32,6.32,0,0,1,6.12-6.3,3.86,3.86,0,0,1,4.15,4,6.13,6.13,0,0,1-.45,2.2h-7.56A2.47,2.47,0,0,0,187.42,100Zm3-4.23a2.42,2.42,0,0,0,.1-.73,1.87,1.87,0,0,0-2.07-2A3.67,3.67,0,0,0,185,95.72Z" transform="translate(-18.18 -41.7)"/><path d="M193.93,97.27a6.26,6.26,0,0,1,6.14-6.22,4.53,4.53,0,0,1,4.21,2.36l-1.85,1.26a2.78,2.78,0,0,0-2.56-1.55c-1.87,0-3.56,1.93-3.56,4.13a2.43,2.43,0,0,0,2.46,2.6,3.91,3.91,0,0,0,2.66-1.16l1.26,1.55a5.56,5.56,0,0,1-4,1.65A4.49,4.49,0,0,1,193.93,97.27Z" transform="translate(-18.18 -41.7)"/><path d="M207.73,87.29h2.38l-1.42,5.32a4.46,4.46,0,0,1,3.15-1.56A2.93,2.93,0,0,1,215,94.16a7.83,7.83,0,0,1-.32,1.83l-1.49,5.67h-2.38l1.53-5.77a3.93,3.93,0,0,0,.16-1c0-1-.67-1.63-1.81-1.63a3.13,3.13,0,0,0-2.85,2.59l-1.58,5.85h-2.38Z" transform="translate(-18.18 -41.7)"/><path d="M224.1,91.27h2.38l-2.8,10.39H221.3Zm.94-3.86h2.58L227,89.67h-2.56Z" transform="translate(-18.18 -41.7)"/><path d="M226,100l1.42-1.46a4.65,4.65,0,0,0,3.35,1.46c.94,0,1.67-.48,1.67-1.25,0-.51-.47-.86-1.52-1.29-1.73-.71-3-1.38-3-3,0-2,1.58-3.45,4.08-3.45a6.35,6.35,0,0,1,4,1.46l-1.32,1.53a4.58,4.58,0,0,0-2.85-1.14c-1,0-1.59.51-1.59,1.18s.47.87,1.65,1.36c1.57.67,2.85,1.4,2.85,2.91,0,2.15-1.79,3.52-4.15,3.52A6.54,6.54,0,0,1,226,100Z" transform="translate(-18.18 -41.7)"/><path d="M244.07,91.27h2.38l-.36,1.34a4.19,4.19,0,0,1,3-1.56A2.82,2.82,0,0,1,252,93.14a4.73,4.73,0,0,1,3.89-2.09A2.91,2.91,0,0,1,259,94.16a7.87,7.87,0,0,1-.33,1.83l-1.52,5.67h-2.38l1.56-5.77a4.85,4.85,0,0,0,.13-1,1.51,1.51,0,0,0-1.69-1.63A3.05,3.05,0,0,0,252,95.81l-1.58,5.85H248l1.56-5.77a4.85,4.85,0,0,0,.13-1A1.51,1.51,0,0,0,248,93.22a3.07,3.07,0,0,0-2.77,2.59l-1.58,5.85h-2.38Z" transform="translate(-18.18 -41.7)"/><path d="M259.71,99c0-2.4,2-3.74,4.62-3.74a9.7,9.7,0,0,1,3.11.51l.06-.21a3,3,0,0,0,.12-.83c0-.92-.67-1.53-2.26-1.53a7.59,7.59,0,0,0-2.86.57l-.39-2a9.82,9.82,0,0,1,3.72-.71c2.74,0,4.17,1.2,4.17,3.23a5.86,5.86,0,0,1-.21,1.47l-1.56,5.85h-2.34l.35-1.36a4.38,4.38,0,0,1-3.36,1.57A2.9,2.9,0,0,1,259.71,99ZM267,97.68l.12-.45a7.91,7.91,0,0,0-2.36-.39c-1.6,0-2.56.78-2.56,1.87,0,.9.63,1.41,1.65,1.41A3.4,3.4,0,0,0,267,97.68Z" transform="translate(-18.18 -41.7)"/><path d="M273.42,91.27h2.38l-.61,2.34c1.14-1.65,2.5-2.66,4.35-2.54l-.67,2.52h-.14c-2.09,0-3.9,1.34-4.66,4.21L273,101.66h-2.38Z" transform="translate(-18.18 -41.7)"/><path d="M282.11,87.29h2.38l-2.25,8.41,5.32-4.43h3.15l-5.24,4.23,2.5,6.16h-2.68L283.44,97l-2,1.62-.81,3h-2.38Z" transform="translate(-18.18 -41.7)"/><path d="M294.7,100a4.18,4.18,0,0,0,2.66-1l1.14,1.52a6.09,6.09,0,0,1-4,1.43c-2.89,0-4.72-1.75-4.72-4.54a6.32,6.32,0,0,1,6.12-6.3,3.86,3.86,0,0,1,4.15,4,6.13,6.13,0,0,1-.45,2.2H292A2.47,2.47,0,0,0,294.7,100Zm2.95-4.23a2.42,2.42,0,0,0,.1-.73,1.87,1.87,0,0,0-2.07-2,3.67,3.67,0,0,0-3.42,2.72Z" transform="translate(-18.18 -41.7)"/><path d="M301.46,99.79a4.16,4.16,0,0,1,.18-1.2L303,93.31h-1.31l.55-2h1.31l.77-2.85h2.38L306,91.27h2.77l-.55,2h-2.77l-1.34,5a3.58,3.58,0,0,0-.08.59c0,.53.35.81,1,.81a4.13,4.13,0,0,0,1.52-.33l-.55,2.06a4.68,4.68,0,0,1-1.95.38C302.38,101.84,301.46,101,301.46,99.79Z" transform="translate(-18.18 -41.7)"/><path d="M310.64,91.27H313l-2.79,10.39h-2.38Zm.94-3.86h2.58l-.63,2.26H311Z" transform="translate(-18.18 -41.7)"/><path d="M315.74,91.27h2.39l-.36,1.34a4.46,4.46,0,0,1,3.15-1.56,2.93,2.93,0,0,1,3.17,3.11,7.83,7.83,0,0,1-.32,1.83l-1.49,5.67H319.9l1.53-5.77a3.93,3.93,0,0,0,.16-1c0-1-.67-1.63-1.81-1.63a3.13,3.13,0,0,0-2.85,2.59l-1.58,5.85H313Z" transform="translate(-18.18 -41.7)"/><path d="M324,103.25l1.32-1.65a6.5,6.5,0,0,0,3.87,1.32,3.41,3.41,0,0,0,2.54-.93,4.7,4.7,0,0,0,1.09-2.1l.17-.63a4.92,4.92,0,0,1-3.56,1.57,3.76,3.76,0,0,1-4-3.76,6,6,0,0,1,5.74-6,3.56,3.56,0,0,1,3.43,2.09l.49-1.87h2.38l-2.28,8.58a6.92,6.92,0,0,1-1.77,3.54,5.45,5.45,0,0,1-4.1,1.46A9.08,9.08,0,0,1,324,103.25ZM334,95.4a2.32,2.32,0,0,0-2.52-2.32,3.59,3.59,0,0,0-3.5,3.58,2.16,2.16,0,0,0,2.4,2.22A3.66,3.66,0,0,0,334,95.4Z" transform="translate(-18.18 -41.7)"/><path d="M338.27,99h2.61l-.72,2.7h-2.62Z" transform="translate(-18.18 -41.7)"/></svg>